<?xml version="1.0" standalone="no"?>
<!DOCTYPE svg PUBLIC "-//W3C//DTD SVG 20010904//EN"
 "http://www.w3.org/TR/2001/REC-SVG-20010904/DTD/svg10.dtd">
<svg version="1.0" xmlns="http://www.w3.org/2000/svg"
 width="1208.000000pt" height="1208.000000pt" viewBox="0 0 1208.000000 1208.000000"
 preserveAspectRatio="xMidYMid meet">
<metadata>
Created by potrace 1.11, written by Peter Selinger 2001-2013
</metadata>
<g transform="translate(0.000000,1208.000000) scale(0.100000,-0.100000)"
fill="#000000" stroke="none">
<path d="M5973 10957 c-3 -5 -11 -6 -19 -3 -8 3 -14 1 -14 -4 0 -6 -7 -10 -16
-10 -9 0 -28 -6 -42 -14 -26 -14 -56 -26 -77 -32 -5 -1 -26 -9 -45 -17 -19 -8
-39 -15 -44 -15 -5 0 -12 -4 -15 -9 -3 -4 -24 -14 -46 -22 -22 -8 -60 -23 -85
-34 -25 -11 -47 -21 -50 -22 -3 -1 -18 -7 -33 -13 -16 -7 -30 -12 -33 -12 -2
0 -23 -9 -47 -19 -23 -11 -89 -39 -147 -62 -58 -23 -106 -45 -108 -50 -2 -4
-10 -5 -18 -2 -8 3 -14 0 -14 -6 0 -6 -3 -10 -7 -9 -14 4 -83 -26 -83 -35 0
-4 -4 -6 -9 -2 -5 3 -39 -8 -76 -25 -36 -16 -69 -30 -73 -30 -4 0 -18 -6 -32
-13 -39 -20 -124 -52 -132 -49 -5 1 -8 -3 -8 -9 0 -5 -4 -7 -10 -4 -5 3 -10 1
-10 -6 0 -7 -3 -9 -6 -6 -4 3 -16 1 -28 -5 -11 -7 -23 -13 -26 -13 -38 -9 -60
-19 -60 -27 0 -5 -5 -6 -11 -2 -6 3 -15 1 -19 -5 -4 -7 -17 -13 -28 -14 -12
-1 -22 -5 -22 -9 0 -4 -7 -8 -15 -8 -9 0 -34 -9 -55 -20 -22 -11 -40 -18 -40
-15 0 4 -10 -1 -22 -9 -12 -9 -30 -16 -40 -16 -10 0 -18 -5 -18 -12 0 -6 -3
-8 -7 -5 -3 4 -12 2 -20 -4 -7 -6 -13 -8 -13 -4 0 4 -6 3 -12 -3 -16 -12 -149
-65 -165 -65 -7 0 -10 -4 -7 -9 3 -4 -2 -8 -11 -8 -9 0 -34 -9 -57 -20 -22
-11 -44 -17 -49 -15 -4 3 -9 2 -11 -3 -1 -4 -61 -32 -133 -61 -71 -29 -143
-59 -160 -66 -98 -42 -209 -85 -221 -85 -8 0 -14 -5 -14 -11 0 -6 -7 -8 -16
-5 -8 3 -12 2 -9 -4 3 -6 0 -10 -8 -10 -15 0 -119 -40 -127 -50 -3 -3 -12 -6
-20 -8 -21 -4 -124 -45 -130 -51 -7 -8 -102 -43 -117 -44 -7 0 -13 -4 -13 -9
0 -4 -3 -7 -7 -6 -5 1 -19 -4 -33 -10 -68 -31 -226 -94 -237 -95 -7 0 -13 -4
-13 -9 0 -5 -4 -6 -10 -3 -5 3 -10 2 -10 -4 0 -6 -7 -8 -15 -5 -8 4 -15 2 -15
-4 0 -5 -12 -13 -27 -18 -37 -10 -34 -9 -68 -24 -16 -7 -32 -14 -35 -15 -3 -1
-18 -7 -33 -13 -16 -7 -52 -22 -80 -33 -29 -12 -65 -27 -82 -34 -16 -7 -61
-26 -100 -41 -38 -15 -73 -32 -77 -38 -4 -6 -10 -7 -14 -3 -4 3 -19 0 -33 -8
-42 -23 -122 -55 -137 -55 -8 0 -14 -4 -14 -8 0 -4 -21 -14 -47 -21 -27 -8
-50 -18 -53 -22 -3 -5 -15 -10 -25 -12 -19 -4 -55 -18 -140 -56 -22 -10 -84
-35 -137 -56 -54 -21 -95 -42 -92 -46 3 -5 -2 -6 -10 -3 -9 3 -32 -3 -52 -15
-19 -12 -33 -17 -30 -12 3 5 -11 0 -31 -10 -21 -11 -43 -19 -50 -19 -7 0 -13
-5 -13 -12 0 -6 -3 -9 -6 -6 -3 4 -29 -4 -57 -16 -53 -23 -88 -38 -97 -41 -16
-6 -49 -19 -77 -31 -17 -8 -36 -14 -42 -14 -6 0 -11 -4 -11 -10 0 -5 -3 -9 -7
-9 -5 1 -11 0 -15 -1 -5 -1 -11 -3 -15 -5 -5 -1 -21 -7 -36 -13 -16 -7 -33
-12 -38 -12 -5 0 -9 -5 -9 -11 0 -5 -4 -8 -8 -5 -5 3 -26 -3 -48 -13 -87 -40
-120 -53 -138 -57 -11 -2 -23 -9 -26 -15 -4 -6 -11 -10 -16 -10 -5 1 -22 -4
-39 -10 -16 -7 -33 -13 -37 -14 -5 -1 -11 -4 -15 -5 -5 -1 -11 -2 -15 -1 -5 0
-8 -3 -8 -8 0 -5 -12 -12 -27 -16 -16 -3 -48 -15 -73 -26 -83 -38 -122 -53
-132 -51 -5 1 -8 -3 -8 -8 0 -5 -3 -9 -7 -8 -18 5 -105 -43 -135 -75 -43 -44
-69 -77 -62 -77 4 0 -1 -11 -10 -25 -9 -14 -14 -30 -11 -35 3 -5 1 -11 -4 -14
-5 -4 -8 -960 -7 -2348 l1 -2343 29 -58 c30 -58 82 -109 146 -141 44 -22 137
-58 146 -56 4 1 10 -2 13 -7 7 -10 93 -44 101 -40 3 1 17 -5 30 -14 14 -8 52
-26 85 -39 33 -13 65 -27 72 -32 7 -6 16 -7 21 -4 6 3 15 0 21 -8 7 -8 24 -17
39 -21 15 -4 51 -17 80 -31 29 -13 58 -24 65 -24 7 0 17 -4 22 -8 6 -5 37 -19
70 -32 33 -13 66 -28 72 -33 7 -5 13 -7 13 -3 0 4 18 -3 40 -14 22 -11 40 -17
40 -13 0 5 4 3 8 -3 4 -5 45 -25 92 -43 47 -18 105 -42 130 -53 87 -39 122
-52 132 -50 5 1 8 -2 8 -8 0 -5 7 -10 16 -10 8 0 34 -8 57 -19 65 -28 81 -34
90 -33 4 1 7 -3 7 -10 0 -6 3 -9 6 -5 3 3 39 -10 80 -28 41 -19 74 -31 74 -28
0 3 11 -2 25 -11 13 -9 31 -16 40 -16 9 0 14 -4 11 -8 -2 -4 4 -9 15 -10 42
-4 49 -6 49 -13 0 -4 20 -13 45 -20 25 -7 45 -17 45 -21 0 -4 8 -8 18 -8 10 0
22 -3 25 -7 4 -3 28 -14 54 -24 27 -9 66 -25 88 -35 22 -10 43 -18 47 -18 3
-1 10 -4 14 -9 4 -4 16 -7 26 -7 10 0 18 -5 18 -12 0 -6 3 -8 7 -5 3 4 16 1
27 -6 12 -7 41 -19 66 -27 25 -7 52 -19 60 -25 8 -7 21 -10 28 -8 6 3 12 1 12
-5 0 -5 19 -14 42 -21 23 -7 51 -19 63 -27 12 -8 25 -11 28 -7 4 3 7 1 7 -5 0
-7 3 -11 8 -10 7 3 52 -13 107 -37 16 -8 33 -11 39 -8 5 3 6 1 3 -4 -4 -6 12
-16 38 -23 25 -7 48 -17 51 -22 3 -4 10 -6 15 -3 5 4 9 2 9 -4 0 -6 7 -7 17
-4 9 4 14 2 10 -4 -3 -5 16 -15 43 -22 28 -7 50 -18 50 -24 0 -5 3 -8 6 -4 4
3 24 -3 45 -13 21 -11 45 -20 54 -20 8 0 15 -5 15 -10 0 -6 3 -9 8 -8 14 3 62
-14 62 -23 0 -5 3 -8 8 -7 10 3 84 -22 98 -33 6 -5 14 -6 17 -2 4 3 7 1 7 -6
0 -7 4 -9 10 -6 5 3 10 1 10 -6 0 -7 3 -10 6 -6 4 3 23 -2 44 -13 21 -11 40
-16 44 -13 3 4 6 2 6 -4 0 -6 10 -13 23 -16 37 -8 92 -31 99 -42 4 -5 8 -6 8
-1 0 5 7 3 15 -4 8 -7 15 -9 15 -6 0 4 12 0 28 -8 22 -12 89 -43 112 -51 3 -1
14 -5 25 -9 11 -4 32 -12 48 -18 15 -6 27 -14 27 -18 0 -5 9 -6 20 -3 11 3 20
0 20 -6 0 -6 9 -11 19 -11 11 0 23 -4 26 -10 3 -5 13 -10 20 -10 8 0 38 -11
67 -24 30 -14 78 -34 108 -46 30 -12 69 -27 85 -35 53 -23 94 -37 101 -35 4 1
10 -2 13 -7 3 -5 44 -24 91 -42 47 -18 101 -40 120 -49 19 -9 38 -15 43 -14 4
1 7 -2 7 -8 0 -6 3 -9 8 -9 16 3 72 -14 72 -22 0 -5 9 -9 20 -9 11 0 20 -5 20
-11 0 -5 4 -8 9 -4 5 3 12 1 16 -5 4 -6 10 -8 15 -5 5 3 11 1 15 -5 4 -6 11
-8 16 -5 5 4 9 1 9 -4 0 -6 3 -10 8 -9 9 2 59 -17 95 -37 16 -8 33 -13 38 -9
5 3 9 1 9 -5 0 -5 14 -12 30 -16 17 -4 30 -11 30 -15 0 -5 7 -7 15 -4 8 4 15
1 15 -6 0 -6 4 -9 9 -5 5 3 12 1 16 -5 3 -5 15 -10 26 -10 10 0 19 -5 19 -12
0 -6 3 -8 7 -5 3 4 12 2 20 -4 7 -6 13 -8 13 -5 0 4 10 1 23 -6 12 -7 24 -13
27 -13 3 -1 22 -9 44 -18 21 -9 43 -17 48 -17 5 0 6 -5 2 -12 -4 -7 -3 -8 5
-4 7 4 29 0 49 -9 48 -21 82 -36 107 -45 11 -5 42 -18 69 -30 28 -12 59 -24
70 -26 11 -2 22 -7 25 -11 3 -5 13 -9 21 -11 8 -1 24 -7 35 -12 11 -5 61 -25
110 -45 50 -20 100 -41 112 -47 12 -6 29 -8 37 -5 8 3 18 2 20 -2 7 -11 105
-5 119 8 7 5 15 9 18 8 9 -3 253 97 260 106 3 5 8 8 10 6 9 -5 79 23 79 32 0
6 4 8 9 4 5 -3 39 8 76 25 36 16 69 30 73 30 4 0 19 6 34 14 14 8 43 19 65 26
21 7 49 19 61 27 13 8 26 12 29 9 3 -3 12 1 20 9 8 8 23 15 33 15 10 0 22 5
25 10 4 6 11 8 16 5 5 -4 9 -2 9 3 0 5 6 9 13 9 6 1 49 17 94 36 44 20 84 33
87 30 3 -4 6 -2 6 3 0 6 25 18 55 29 30 10 55 23 55 28 0 6 3 8 6 4 4 -3 19 0
35 8 15 8 36 16 46 18 10 2 43 15 73 29 56 26 89 38 103 38 4 -1 15 6 24 15 8
9 22 14 29 11 8 -3 14 -2 14 2 0 8 121 57 133 54 4 -1 7 2 7 8 0 6 3 9 8 8 8
-1 18 3 99 38 28 12 54 20 57 16 3 -3 6 0 6 7 0 7 4 10 9 7 5 -3 21 4 37 16
15 13 25 17 20 10 -4 -6 -2 -12 3 -12 6 0 11 3 11 8 0 8 121 58 133 54 4 -1 7
2 7 8 0 6 3 9 8 8 4 0 24 6 44 15 21 10 44 17 53 17 8 0 15 5 15 12 0 6 3 9 6
6 5 -6 90 28 144 57 14 7 27 12 30 12 6 -2 65 22 134 54 22 10 43 16 48 13 4
-3 8 0 8 5 0 6 7 11 15 11 8 0 32 9 52 20 20 10 40 17 45 14 4 -3 8 -1 8 4 0
5 19 14 43 21 23 7 51 20 61 29 12 10 16 12 11 3 -6 -10 -2 -10 16 2 13 8 35
18 49 22 14 4 54 21 90 38 36 16 70 30 76 31 7 1 20 8 30 16 13 11 16 12 10 1
-6 -8 0 -7 18 4 14 10 26 14 26 10 0 -3 7 1 16 9 8 9 23 16 32 16 10 0 28 7
40 16 12 8 22 12 22 8 0 -3 7 -1 15 6 8 7 15 9 15 4 0 -5 4 -4 8 1 4 6 25 16
47 24 22 8 64 25 94 39 30 13 60 25 65 26 6 1 18 6 26 11 8 5 24 11 35 12 11
2 22 8 23 13 2 6 10 10 17 10 11 0 82 28 180 70 17 7 48 19 65 25 3 1 22 9 42
18 21 10 42 17 48 17 5 0 10 4 10 10 0 5 7 7 15 4 8 -4 15 -1 15 6 0 6 5 8 10
5 6 -3 10 -1 10 4 0 6 3 10 8 9 13 -4 112 36 112 46 0 5 3 7 6 3 4 -3 19 0 35
9 16 8 31 14 34 14 17 -1 55 14 55 22 0 6 6 8 14 5 8 -3 16 -1 18 4 2 6 10 11
18 13 8 1 37 12 64 24 26 12 52 19 57 16 5 -3 9 -2 9 3 0 4 15 14 33 21 17 8
59 25 92 38 33 14 73 31 88 39 20 10 26 11 22 2 -4 -6 -1 -5 7 3 7 8 21 16 31
18 10 2 47 17 83 33 35 17 69 27 74 24 6 -3 10 -2 10 3 0 5 8 12 18 15 9 3 43
17 75 30 31 14 57 22 57 18 0 -3 4 0 8 7 5 7 17 14 28 16 10 2 33 10 49 17 17
7 32 13 35 14 3 1 16 6 30 13 85 38 123 51 133 45 5 -3 7 -2 4 4 -4 6 13 16
36 23 23 8 47 17 52 20 6 4 37 17 70 30 33 13 66 28 73 33 6 5 12 6 12 3 0 -4
12 0 28 8 25 15 84 38 90 37 1 -1 17 6 35 16 17 9 38 16 45 15 6 -2 12 1 12 6
0 5 20 15 45 22 25 7 48 17 51 22 3 4 10 6 15 3 5 -4 9 -2 9 3 0 6 10 12 23
16 53 13 132 109 151 184 10 37 12 565 10 2372 -1 1279 -5 2338 -9 2355 -5 16
-14 36 -22 43 -7 7 -13 20 -13 28 0 8 -4 14 -9 14 -5 0 -13 9 -16 20 -3 11
-12 20 -19 20 -8 0 -20 7 -27 16 -11 14 -148 84 -163 84 -3 0 -17 5 -33 12
-15 6 -30 12 -33 13 -17 6 -50 19 -80 33 -19 9 -39 17 -45 18 -9 2 -83 33
-130 55 -42 19 -171 70 -183 73 -7 1 -18 8 -24 14 -7 7 -18 12 -24 12 -7 0
-25 5 -41 12 -15 6 -30 12 -33 13 -3 0 -27 11 -54 23 -27 12 -54 22 -61 22 -7
0 -25 10 -41 22 -15 13 -25 17 -21 11 4 -7 -7 -4 -25 5 -18 9 -37 17 -43 19
-38 10 -85 29 -85 35 0 5 -7 8 -15 8 -8 0 -23 4 -33 9 -9 5 -28 13 -42 19 -14
6 -47 20 -74 31 -27 12 -55 21 -62 21 -8 0 -14 5 -14 11 0 5 -4 7 -10 4 -5 -3
-10 -1 -10 5 0 6 -6 10 -12 9 -17 -2 -78 21 -78 29 0 4 -12 8 -26 9 -15 0 -30
7 -35 15 -5 7 -9 9 -9 4 0 -5 -6 -4 -12 1 -16 11 -105 45 -114 43 -4 -1 -10 2
-13 7 -5 7 -94 46 -111 48 -3 0 -15 6 -26 13 -12 6 -24 8 -28 5 -3 -3 -6 -1
-6 5 0 7 -9 12 -19 12 -11 0 -23 5 -26 10 -4 6 -11 8 -16 5 -5 -4 -9 -1 -9 6
0 7 -3 10 -6 7 -3 -4 -34 7 -69 23 -36 16 -71 29 -80 29 -8 0 -15 5 -15 10 0
6 -11 10 -25 10 -14 0 -25 5 -25 10 0 6 -7 10 -15 10 -9 0 -33 9 -54 20 -21
10 -41 16 -45 13 -3 -4 -6 -1 -6 6 0 8 -8 11 -20 8 -11 -3 -20 -2 -20 3 0 4
-12 12 -27 19 -16 6 -41 16 -58 22 -16 7 -32 13 -35 14 -3 1 -22 9 -44 18 -21
9 -40 17 -42 17 -2 0 -23 8 -47 19 -96 42 -132 56 -139 54 -5 -2 -8 2 -8 9 0
6 -3 8 -7 5 -3 -4 -11 -3 -17 2 -6 5 -28 14 -48 20 -21 7 -38 17 -38 23 0 6
-3 9 -6 5 -6 -5 -60 13 -144 50 -19 8 -44 19 -55 23 -11 5 -41 18 -67 28 -25
11 -49 18 -52 14 -3 -3 -6 -1 -6 5 0 9 -77 39 -92 35 -5 -1 -8 3 -8 9 0 5 -4
7 -10 4 -5 -3 -10 -2 -10 3 0 6 -12 13 -27 17 -15 3 -43 14 -62 22 -20 9 -38
17 -41 18 -3 1 -22 9 -44 18 -21 9 -44 17 -52 17 -7 0 -19 7 -28 15 -8 9 -19
14 -23 13 -4 -1 -30 8 -57 20 -27 12 -51 22 -55 22 -3 0 -17 6 -31 13 -39 20
-124 52 -132 49 -5 -1 -8 2 -8 8 0 6 -3 9 -7 8 -9 -1 -19 3 -102 39 -29 12
-57 20 -62 17 -5 -3 -9 -1 -9 4 0 9 -120 58 -129 53 -2 -2 -7 1 -10 6 -7 11
-102 48 -113 45 -5 -1 -8 2 -8 7 0 5 -10 11 -23 15 -13 3 -41 13 -63 23 -21 9
-41 17 -44 18 -3 1 -17 7 -32 13 -42 18 -72 29 -83 32 -5 1 -19 7 -30 13 -11
6 -23 10 -27 9 -5 -1 -8 3 -8 8 0 6 -8 10 -18 10 -10 0 -23 5 -30 12 -7 7 -12
9 -12 6 0 -4 -26 4 -57 18 -32 14 -67 29 -78 33 -11 5 -36 16 -55 24 -19 9
-38 13 -42 11 -4 -3 -8 0 -8 5 0 6 -7 11 -16 11 -9 0 -28 7 -42 15 -25 14
-144 63 -257 106 -27 11 -59 24 -70 29 -11 5 -49 21 -85 36 -36 14 -81 33
-100 41 -47 20 -90 38 -120 48 -3 1 -22 9 -42 18 -21 10 -42 17 -48 17 -5 0
-10 5 -10 11 0 5 -4 7 -10 4 -5 -3 -21 1 -34 10 -14 9 -26 16 -28 15 -2 -1
-20 5 -42 14 -21 9 -44 16 -52 16 -7 0 -16 5 -19 10 -4 7 -13 6 -27 -1 -11 -6
-18 -7 -14 -1 3 5 -13 9 -40 8 -25 0 -48 -5 -51 -9z"/>
</g>
</svg>
