<svg xmlns="http://www.w3.org/2000/svg" xmlns:xlink="http://www.w3.org/1999/xlink" xmlns:fi="http://pattern.flaticon.com/" x="0" y="0" width="1200" height="600" viewBox="0 0 1400 700"><rect x="0px" y="0px" width="100%" height="100%" opacity="0" fill="#ffffff"/><defs><g transform="matrix(0.08094164729118347 0 0 0.08094164729118347 83.9264714717865 20.574004650115967)" id="L1_0"><path d="m184 208c22.082031-.027344 39.972656-17.917969 40-40 0-4.417969-3.582031-8-8-8h-64c-4.417969 0-8 3.582031-8 8 .027344 22.082031 17.917969 39.972656 40 40zm22.632812-32c-3.386718 9.597656-12.457031 16.011719-22.632812 16.011719s-19.246094-6.414063-22.632812-16.011719zm0 0"/><path d="m296 208c22.082031-.027344 39.972656-17.917969 40-40 0-4.417969-3.582031-8-8-8h-64c-4.417969 0-8 3.582031-8 8 .027344 22.082031 17.917969 39.972656 40 40zm22.632812-32c-3.386718 9.597656-12.457031 16.011719-22.632812 16.011719s-19.246094-6.414063-22.632812-16.011719zm0 0"/><path d="m216 248c0-8.835938-7.164062-16-16-16h-16c-8.835938 0-16 7.164062-16 16v32h-16v16h176v-16h-16v-32c0-8.835938-7.164062-16-16-16h-16c-8.835938 0-16 7.164062-16 16v32h-48zm-16 32h-16v-32h16zm80-32h16v32h-16zm0 0"/><path d="m146.96875 135.433594 11.742188-4.699219 10.433593 17.386719 13.710938-8.242188-9.09375-15.167968 13.207031-5.277344-5.9375-14.867188-15.617188 6.25-6.558593-10.9375-13.710938 8.242188 5.222657 8.710937-9.335938 3.734375zm0 0"/><path d="m368 258.3125v-82.3125h16v8c0 4.417969 3.582031 8 8 8h32c4.417969 0 8-3.582031 8-8v-64c0-4.417969-3.582031-8-8-8h-32c-4.417969 0-8 3.582031-8 8v8h-16v-88c-.027344-22.082031-17.917969-39.9726562-40-40h-176c-22.082031.0273438-39.972656 17.917969-40 40v88h-16v-8c0-4.417969-3.582031-8-8-8h-32c-4.417969 0-8 3.582031-8 8v64c0 4.417969 3.582031 8 8 8h32c4.417969 0 8-3.582031 8-8v-8h16v82.265625c-64.742188 11.660156-111.886719 67.949219-112 133.734375v80c0 4.417969 3.582031 8 8 8h464c4.417969 0 8-3.582031 8-8v-80c-.121094-65.773438-47.265625-122.046875-112-133.6875zm32-130.3125h16v48h-16zm-32 16h16v16h-16zm-288 32h-16v-48h16zm48-136c0-13.253906 10.746094-24 24-24h176c13.253906 0 24 10.746094 24 24v33.921875l-25.886719-31.050781c-1.519531-1.820313-3.769531-2.871094-6.140625-2.871094s-4.621094 1.050781-6.140625 2.871094l-33.894531 40.632812-33.847656-40.632812c-1.523438-1.824219-3.773438-2.878906-6.148438-2.878906s-4.628906 1.054687-6.148437 2.878906l-33.792969 40.632812-33.871094-40.625c-1.519531-1.824218-3.773437-2.878906-6.148437-2.878906s-4.628907 1.054688-6.148438 2.878906l-25.832031 31.015625zm0 58.894531 32-38.398437 33.847656 40.625c1.519532 1.824218 3.773438 2.878906 6.148438 2.878906s4.628906-1.054688 6.148437-2.878906l33.816407-40.625 33.855468 40.632812c1.570313 1.738282 3.800782 2.726563 6.144532 2.726563 2.339843 0 4.574218-.988281 6.144531-2.726563l33.894531-40.632812 32 38.398437v165.976563c-.527344 39.402344-32.59375 71.078125-72 71.128906h-80c-39.375-.039062-71.433594-31.667969-72-71.039062zm-32 61.105469v-16h16v16zm24 304v-72h-16v72h-88v-72c.066406-57.234375 40.46875-106.488281 96.585938-117.742188.085937.71875.183593 1.328126.285156 1.910157 3.6875 25.78125 18.601562 48.609375 40.730468 62.34375.503907.433593 1.039063.828125 1.597657 1.183593l27.578125 48.242188 43.429687 76.0625zm88.496094-63.199219-29.296875-51.296875c.265625.042969.53125.070313.800781.082032 6.550781 1.566406 13.261719 2.378906 20 2.414062h80c6.738281-.03125 13.445312-.839844 20-2.398438.269531-.011718.535156-.039062.800781-.082031l-29.9375 52.390625-30.863281 53.960938zm255.503906 63.199219h-88v-72h-16v72h-106.207031l43.464843-76.0625 27.574219-48.242188c.566407-.34375.921875-.710937 1.40625-1.0625 22.558594-13.972656 37.609375-37.375 40.960938-63.695312 0-.226562.160156-.449219.191406-.679688 56.125 11.246094 96.539063 60.5 96.609375 117.742188zm0 0"/></g><g transform="matrix(0.07853563874959946 0 0 0.07853563874959946 258.89487648010254 180.89487648010254)" id="L1_1"><path d="M504.485,136.266c-13.536,0-24.548-11.011-24.548-24.548c0-4.151-3.364-7.515-7.515-7.515    c-4.151,0-7.515,3.364-7.515,7.515c0,13.536-11.011,24.548-24.548,24.548c-4.151,0-7.515,3.364-7.515,7.515    s3.364,7.515,7.515,7.515c13.536,0,24.548,11.012,24.548,24.548c0,4.151,3.364,7.515,7.515,7.515c4.151,0,7.515-3.364,7.515-7.515    c0-13.536,11.011-24.548,24.548-24.548c4.151,0,7.515-3.364,7.515-7.515S508.636,136.266,504.485,136.266z M472.423,152.665    c-2.472-3.409-5.476-6.412-8.884-8.884c3.409-2.472,6.413-5.476,8.884-8.884c2.472,3.409,5.476,6.412,8.884,8.884    C477.898,146.253,474.895,149.257,472.423,152.665z"/><path d="M71.64,136.266c-13.535,0-24.548-11.011-24.548-24.548c0-4.151-3.365-7.515-7.515-7.515c-4.15,0-7.515,3.364-7.515,7.515    c0,13.536-11.013,24.548-24.548,24.548c-4.15,0-7.515,3.364-7.515,7.515s3.365,7.515,7.515,7.515    c13.535,0,24.548,11.012,24.548,24.548c0,4.151,3.365,7.515,7.515,7.515c4.15,0,7.515-3.364,7.515-7.515    c0-13.536,11.013-24.548,24.548-24.548c4.15,0,7.515-3.364,7.515-7.515S75.79,136.266,71.64,136.266z M39.577,152.665    c-2.472-3.409-5.475-6.412-8.884-8.884c3.41-2.472,6.413-5.476,8.884-8.884c2.472,3.409,5.475,6.412,8.884,8.884    C45.053,146.253,42.049,149.257,39.577,152.665z"/><path d="M296.078,40.078c-17.956,0-32.564-14.607-32.564-32.564C263.515,3.364,260.151,0,256,0c-4.15,0-7.515,3.364-7.515,7.515    c0,17.956-14.609,32.564-32.564,32.564c-4.15,0-7.515,3.364-7.515,7.515s3.365,7.515,7.515,7.515    c17.955,0,32.564,14.608,32.564,32.564c0,4.151,3.365,7.515,7.515,7.515c4.151,0,7.515-3.364,7.515-7.515    c0-17.956,14.608-32.564,32.564-32.564c4.151,0,7.515-3.364,7.515-7.515S300.229,40.078,296.078,40.078z M256,62.027    c-3.715-5.784-8.65-10.719-14.435-14.434c5.785-3.715,10.72-8.65,14.435-14.434c3.715,5.784,8.65,10.719,14.434,14.434    C264.65,51.308,259.715,56.243,256,62.027z"/><path d="M412.456,253.499l-29.232-82.824c-2.187-6.198-8.073-10.362-14.645-10.362H141.417c-6.573,0-12.458,4.164-14.645,10.361    l-29.232,82.825c-1.698,4.811,1.992,10.016,7.086,10.016h300.744c2.438,0,4.725-1.184,6.133-3.174    C412.912,258.35,413.268,255.799,412.456,253.499z M115.247,248.485l25.697-72.809c0.068-0.193,0.267-0.334,0.472-0.334h227.163    c0.205,0,0.404,0.141,0.473,0.335l25.697,72.808H115.247z"/><path d="M399.28,352.689c-26.688,0-47.593,13.864-47.593,31.562s20.905,31.562,47.593,31.562s47.593-13.864,47.593-31.562    S425.968,352.689,399.28,352.689z M399.28,400.783c-18.638,0-32.564-8.728-32.564-16.532s13.925-16.532,32.564-16.532    c18.638,0,32.564,8.728,32.564,16.532S417.918,400.783,399.28,400.783z"/><path d="M110.716,352.689c-26.688,0-47.593,13.864-47.593,31.562s20.905,31.562,47.593,31.562s47.593-13.864,47.593-31.562    S137.404,352.689,110.716,352.689z M110.716,400.783c-18.637,0-32.564-8.728-32.564-16.532s13.926-16.532,32.564-16.532    s32.564,8.728,32.564,16.532S129.354,400.783,110.716,400.783z"/><path d="M495.468,240.47h-40.078c-3.448,0-6.454,2.347-7.29,5.692l-5.279,21.115L405.9,162.671    c-5.574-15.793-20.572-26.405-37.321-26.405H141.417c-16.749,0-31.747,10.612-37.321,26.406l-36.92,104.606l-5.279-21.116    c-0.837-3.346-3.843-5.692-7.29-5.692H14.528c-4.15,0-7.515,3.364-7.515,7.515v32.063c0,4.151,3.365,7.515,7.515,7.515h41.507    l-25.619,35.866c-4.822,6.751-7.371,14.707-7.371,23.004v93.928c0,13.015,6.317,24.581,16.044,31.798    c-0.003,0.088-0.013,0.175-0.013,0.264v24.047c0,8.564,6.967,15.53,15.53,15.53h48.094c8.564,0,15.53-6.967,15.53-15.53v-16.532    h273.534v16.532c0,8.564,6.967,15.53,15.53,15.53h48.094c8.564,0,15.53-6.967,15.53-15.53v-24.047c0-0.089-0.01-0.176-0.013-0.264    c9.727-7.217,16.044-18.783,16.044-31.798v-93.928c0-8.298-2.55-16.254-7.372-23.004l-25.619-35.866h41.508    c4.151,0,7.515-3.364,7.515-7.515v-32.063C502.982,243.833,499.619,240.47,495.468,240.47z M22.043,272.532v-17.033h26.696    l4.258,17.033H22.043z M103.202,496.47c0,0.276-0.224,0.501-0.501,0.501H54.607c-0.276,0-0.501-0.225-0.501-0.501v-16.532h8.517    h40.579V496.47z M455.89,496.47c0,0.276-0.225,0.501-0.501,0.501h-48.094c-0.276,0-0.501-0.225-0.501-0.501v-16.532h40.579h8.517    V496.47z M447.374,464.908H62.622c-10.915,0-20.185-7.162-23.367-17.033H470.74C467.558,457.746,458.289,464.908,447.374,464.908z     M319.624,383.75v17.033H190.372V383.75H319.624z M191.553,368.72c3.182-9.871,12.451-17.033,23.367-17.033h80.157    c10.915,0,20.185,7.162,23.367,17.033H191.553z M319.624,415.812v17.033H190.372v-17.033H319.624z M467.35,332.164    c2.991,4.187,4.572,9.121,4.572,14.268v86.414H334.654v-56.611c0-21.823-17.755-39.577-39.577-39.577H214.92    c-21.823,0-39.577,17.755-39.577,39.577v56.611H38.074v-86.414c0-5.147,1.581-10.081,4.572-14.268l31.859-44.602h276.68    c4.151,0,7.515-3.364,7.515-7.515c0-4.151-3.364-7.515-7.515-7.515H81.259l37.009-104.859c3.458-9.795,12.76-16.378,23.149-16.378    H368.58c10.388,0,19.69,6.582,23.149,16.378l37.008,104.859h-45.489c-4.151,0-7.515,3.364-7.515,7.515    c0,4.151,3.364,7.515,7.515,7.515h52.243L467.35,332.164z M487.953,272.532h-30.955l4.258-17.033h26.697V272.532z"/><path d="M134.763,328.642H86.669c-4.15,0-7.515,3.364-7.515,7.515s3.365,7.515,7.515,7.515h48.094c4.15,0,7.515-3.364,7.515-7.515    S138.913,328.642,134.763,328.642z"/><path d="M423.327,328.642h-48.094c-4.151,0-7.515,3.364-7.515,7.515s3.364,7.515,7.515,7.515h48.094    c4.151,0,7.515-3.364,7.515-7.515S427.478,328.642,423.327,328.642z"/></g><g transform="matrix(0.04955214885198004 0.004955214960381723 -0.004955214960381723 0.04955214885198004 63.15269530438988 32.111716763149595)" id="L1_2"><path d="m208.082031 181.199219c-.660156 0-1.308593-.058594-1.960937-.1875-.640625-.132813-1.269532-.320313-1.871094-.570313-.597656-.25-1.179688-.5625-1.71875-.921875-.550781-.371093-1.058594-.789062-1.53125-1.25-.457031-.460937-.867188-.96875-1.238281-1.519531-.359375-.539062-.671875-1.121094-.921875-1.71875-.25-.609375-.4375-1.242188-.566406-1.871094-.132813-.648437-.191407-1.308594-.191407-1.960937 0-.648438.058594-1.308594.191407-1.949219.128906-.640625.316406-1.269531.566406-1.871094.25-.609375.5625-1.1875.921875-1.730468.371093-.546876.78125-1.058594 1.238281-1.519532 2.332031-2.320312 5.78125-3.378906 9.03125-2.730468.640625.132812 1.269531.320312 1.871094.570312.597656.25 1.1875.5625 1.730468.921875.546876.359375 1.058594.78125 1.519532 1.238281.460937.460938.878906.972656 1.238281 1.519532.359375.542968.671875 1.121093.921875 1.730468.25.601563.4375 1.230469.570312 1.871094.128907.640625.199219 1.300781.199219 1.949219 0 .652343-.070312 1.3125-.199219 1.960937-.132812.628906-.320312 1.261719-.570312 1.871094-.25.597656-.5625 1.179688-.921875 1.71875-.359375.550781-.777344 1.058594-1.238281 1.519531-.460938.460938-.972656.878907-1.519532 1.25-.542968.359375-1.132812.671875-1.730468.921875-.601563.25-1.230469.4375-1.871094.570313-.640625.128906-1.300781.1875-1.949219.1875zm0 0"/><path d="m502.195312 388.738281-119.710937-119.53125.050781-37.84375c.007813-6.160156-.378906-12.347656-1.15625-18.472656 16.054688-9.371094 26.867188-26.785156 26.867188-46.675781 0-29.777344-24.222656-54-54-54-7.160156 0-14 1.398437-20.257813 3.941406l-36.839843-52.722656c-5.773438-8.5625-14.542969-14.300782-24.703126-16.171875-10.191406-1.875-20.46875.394531-28.925781 6.386719-15.898437 11.257812-20.519531 33.164062-10.832031 50.363281l-71.515625-71.515625c-14.792969-14.792969-38.722656-15.085938-53.34375-.652344-4.703125 4.640625-7.925781 10.253906-9.648437 16.226562-14.359376-9.800781-34.292969-8.542968-47.21875 3.910157-7.15625 6.890625-11.148438 16.273437-11.246094 26.417969-.070313 7.757812 2.230468 15.382812 6.460937 21.765624-6.019531 1.714844-11.683593 4.949219-16.359375 9.6875-13.273437 13.449219-14.089844 34.769532-2.625 49.617188-5.769531 1.71875-11.195312 4.847656-15.707031 9.359375-7.082031 7.082031-10.984375 16.5-10.984375 26.519531 0 10.015625 3.902344 19.4375 10.984375 26.519532.101563.101562.203125.199218.308594.296874l20.382812 18.707032c-1.914062 5.9375-2.945312 12.261718-2.945312 18.824218 0 11.707032 3.328125 23.082032 9.503906 32.855469-13.613281 14.628907-21.53125 34.003907-21.53125 53.414063 0 25.144531 12.621094 48.523437 33.320313 62.433594.050781 33.875 27.625 61.421874 61.515624 61.421874 20.910157 0 39.785157-10.382812 50.992188-27.027343 15.960938 17.160156 38.285156 27.027343 62.355469 27.027343 31.066406 0 59.226562-16.976562 74.15625-43.09375l82.320312 82.34375c1.953125 1.953126 4.511719 2.929688 7.070313 2.929688 2.5625 0 5.121094-.976562 7.074218-2.929688l106.1875-106.191406c3.90625-3.902344 3.90625-10.234375 0-14.140625zm-113.949218-222.523437c0 18.746094-15.25 34-34 34-18.746094 0-34-15.253906-34-34 0-18.75 15.253906-34 34-34 18.75 0 34 15.25 34 34zm-344.195313-42.3125c6.402344-6.488282 16.765625-6.9375 23.710938-1.078125l79.660156 79.660156c1.953125 1.953125 4.511719 2.925781 7.070313 2.925781 2.558593 0 5.121093-.976562 7.074218-2.925781 3.902344-3.90625 3.902344-10.238281 0-14.144531l-96.460937-96.453125c-3.472657-3.472657-5.4375-8.320313-5.390625-13.300781.042968-4.730469 1.863281-9.066407 5.121094-12.203126 6.820312-6.570312 17.820312-6.460937 24.515624.238282l85.597657 85.59375c1.953125 1.953125 4.511719 2.929687 7.074219 2.929687 2.558593 0 5.117187-.976562 7.070312-2.929687 3.902344-3.902344 3.902344-10.234375 0-14.140625l-68.324219-68.324219c-5.828125-6.945312-5.367187-17.28125 1.109375-23.675781 6.824219-6.734375 18.105469-6.480469 25.148438.5625l116.636718 116.640625c5.105469 5.101562 12.929688 5.574218 18.609376 1.121094 5.679687-4.457032 7.085937-12.167969 3.339843-18.339844-.097656-.160156-.195312-.316406-.300781-.46875l-35.015625-51.066406c-4.941406-8.394532-2.867187-19.136719 4.78125-24.554688 4.019531-2.851562 8.902344-3.929688 13.746094-3.035156 4.84375.890625 9.023437 3.632812 11.765625 7.722656.035156.054688.074218.105469.109375.160156l36.464843 52.179688c-10.414062 9.851562-16.917968 23.789062-16.917968 39.21875 0 29.773437 24.222656 54 54 54 2.632812 0 5.222656-.191406 7.757812-.558594.359375 3.886719.535156 7.789062.53125 11.679688l-.058594 41.996093c-.003906 2.65625 1.050782 5.207031 2.929688 7.082031l45.785156 45.785157-91.945312 91.945312-9.042969-9.042969c19.597656-13.113281 31.453125-34.992187 31.453125-58.972656 0-29.730468-19.160156-56.945312-46.453125-67.265625-6.191406-48.011719-46.6875-84.679687-95.03125-84.679687-22.472656 0-44.515625 7.988281-62.074219 22.226562-10.914062-13.167968-26.898437-21.292968-44.28125-22.152344l-49.203125-49.203124c-7.046875-7.046876-7.296875-18.328126-.5625-25.152344zm-18.558593 83.6875c-3.222657-3.289063-4.992188-7.628906-4.992188-12.242188 0-4.675781 1.820312-9.070312 5.125-12.378906 6.394531-6.390625 16.703125-6.816406 23.601562-1.015625l20.082032 20.078125c-11.015625 4.109375-20.546875 11.289062-27.550782 20.492188zm199.894531 242.234375c-22.886719 0-43.710938-11.660157-55.710938-31.183594-1.832031-2.984375-5.070312-4.761719-8.515625-4.761719-.40625 0-.8125.023438-1.222656.074219-3.882812.476563-7.132812 3.175781-8.3125 6.90625-5.488281 17.324219-21.398438 28.964844-39.589844 28.964844-22.890625 0-41.515625-18.625-41.515625-41.515625 0-1.4375.074219-2.886719.222657-4.3125.410156-3.976563-1.59375-7.816406-5.085938-9.761719-17.550781-9.761719-28.453125-28.257813-28.453125-48.265625 0-16.410156 8.15625-33.53125 21.285156-44.679688 2.042969-1.734374 3.304688-4.21875 3.5-6.890624.195313-2.671876-.691406-5.3125-2.457031-7.328126-6.644531-7.566406-10.304688-17.289062-10.304688-27.371093 0-22.894531 18.625-41.515625 41.515626-41.515625 15.421874 0 29.488281 8.472656 36.714843 22.113281 1.5 2.832031 4.269531 4.773437 7.445313 5.21875 3.175781.445313 6.371094-.65625 8.59375-2.964844 14.914062-15.488281 35.570312-24.371093 56.671875-24.371093 40.066406 0 73.324219 31.964843 75.714843 72.769531.253907 4.324219 3.257813 7.992187 7.449219 9.089843 22.207031 5.820313 38.324219 26.886719 38.324219 50.089844 0 19.382813-10.792969 36.863282-28.167969 45.609375-2.519531 1.269531-4.386719 3.542969-5.140625 6.261719-7.808594 28.15625-33.699218 47.824219-62.960937 47.824219zm163.546875 38.035156-55.558594-55.5625 92.046875-92.046875 55.5625 55.558594zm0 0"/><path d="m339.53125 78.5625c-21.660156 0-39.285156-17.621094-39.285156-39.28125s17.625-39.28125 39.285156-39.28125 39.28125 17.621094 39.28125 39.28125-17.621094 39.28125-39.28125 39.28125zm0-58.5625c-10.632812 0-19.285156 8.648438-19.285156 19.28125s8.652344 19.28125 19.285156 19.28125c10.628906 0 19.28125-8.648438 19.28125-19.28125s-8.652344-19.28125-19.28125-19.28125zm0 0"/><path d="m439.015625 129.890625c-21.65625 0-39.28125-17.625-39.28125-39.285156 0-21.660157 17.625-39.28125 39.28125-39.28125 21.660156 0 39.285156 17.621093 39.285156 39.28125-.003906 21.660156-17.625 39.285156-39.285156 39.285156zm0-58.566406c-10.628906 0-19.28125 8.652343-19.28125 19.28125 0 10.632812 8.652344 19.285156 19.28125 19.285156 10.632813 0 19.285156-8.652344 19.285156-19.285156-.003906-10.628907-8.652343-19.28125-19.285156-19.28125zm0 0"/></g><g transform="matrix(0.07943162322044373 0 0 0.07943162322044373 73.9364104270935 183.9364104270935)" id="L1_3"><path d="M416,336h-12.528c-8.786,0.008-17.45,2.053-25.312,5.976c-11.439,5.686-24.881,5.686-36.32,0    c-4.563-2.239-9.406-3.854-14.4-4.8L343.032,216H360c4.418,0,8-3.582,8-8v-32c0-4.418-3.582-8-8-8h-32v-24    c0-2.122-0.844-4.156-2.344-5.656L288,100.688V75.84l12.128-9.696l20.712,41.432l14.32-7.152L312.904,55.92L322.8,48H352    c4.418,0,8-3.582,8-8V8c0-4.418-3.582-8-8-8h-80c-39.744,0.048-71.952,32.256-72,72c0,4.418,3.582,8,8,8h16v20.688l-21.656,21.656    c-1.5,1.5-2.344,3.534-2.344,5.656v40h-16v-64c-0.012-0.991-0.21-1.97-0.584-2.888c-0.146-0.311-0.312-0.613-0.496-0.904    c-0.192-0.419-0.417-0.823-0.672-1.208L152,61.2V8c0-4.418-3.582-8-8-8H96c-4.418,0-8,3.582-8,8v53.2L57.752,99    c-0.255,0.385-0.48,0.789-0.672,1.208c-0.184,0.291-0.35,0.593-0.496,0.904C56.21,102.03,56.012,103.009,56,104v64H24    c-4.418,0-8,3.582-8,8v32c0,4.418,3.582,8,8,8h16.968l31.096,241.024c0.515,3.99,3.913,6.977,7.936,6.976h188.32    c9.073,10.17,22.051,15.99,35.68,16h12.528c8.786-0.008,17.45-2.053,25.312-5.976c11.439-5.686,24.881-5.686,36.32,0    c7.862,3.923,16.526,5.968,25.312,5.976H416c26.499-0.026,47.974-21.501,48-48v-48C463.974,357.501,442.499,336.026,416,336z     M328,16h16v16h-16V16z M352,184v16H240v-16H352z M216.568,64c4.013-27.535,27.606-47.965,55.432-48h40v20.16L277.192,64H216.568z     M272,80v16h-32V80H272z M216,131.312L235.312,112h41.376L312,147.312V168h-96V131.312z M208,184h16v56    c-0.017,3.047,1.699,5.838,4.424,7.2l48,24c2.341,1.154,4.115,3.205,4.92,5.688c0.829,2.665,0.541,5.552-0.8,8    c-2.302,4.619-7.912,6.497-12.531,4.194c-0.007-0.003-0.014-0.007-0.021-0.01l-32.48-16.24c-3.97-1.94-8.76-0.294-10.7,3.676    c-0.531,1.088-0.809,2.282-0.812,3.492v80c0,8.837-7.163,16-16,16v-72h-16v72h-16v-72h-16v72h-16v-72h-16v72    c-8.837,0-16-7.163-16-16V184H208z M104,16h32v40h-32V16z M99.84,72h40.32l19.2,24H80.64L99.84,72z M72,112h96v56H72V112z M32,200    v-16h64v16H32z M256,384v48c0.014,5.454,0.961,10.865,2.8,16H87.032L57.096,216H96v144c0,17.673,14.327,32,32,32h80    c17.673,0,32-14.327,32-32v-67.056l20.896,10.448c12.627,6.232,27.915,1.048,34.147-11.579c0.026-0.052,0.051-0.105,0.077-0.157    c3.099-6.143,3.626-13.268,1.464-19.8c-2.132-6.535-6.802-11.937-12.96-14.992L240,235.056V216h86.904l-15.488,120H304    C277.501,336.026,256.026,357.501,256,384z M448,432c0,17.673-14.327,32-32,32h-12.528c-6.301-0.009-12.514-1.476-18.152-4.288    c-15.95-7.925-34.69-7.925-50.64,0c-5.638,2.812-11.851,4.279-18.152,4.288H304c-17.673,0-32-14.327-32-32v-12.32    c8.773,7.927,20.176,12.317,32,12.32h12.528c8.786-0.008,17.45-2.053,25.312-5.976c11.439-5.686,24.881-5.686,36.32,0    c7.862,3.923,16.526,5.968,25.312,5.976H416c11.824-0.003,23.227-4.393,32-12.32V432z M416,416h-12.528    c-6.301-0.009-12.514-1.476-18.152-4.288c-15.95-7.925-34.69-7.925-50.64,0c-5.638,2.812-11.851,4.279-18.152,4.288H304    c-17.673,0-32-14.327-32-32c0-17.673,14.327-32,32-32h12.528c6.301,0.009,12.514,1.476,18.152,4.288    c15.951,7.92,34.689,7.92,50.64,0c5.638-2.812,11.851-4.279,18.152-4.288H416c17.673,0,32,14.327,32,32    C448,401.673,433.673,416,416,416z"/><rect x="408px" y="368px" width="16px" height="16px"/><rect x="328px" y="368px" width="16px" height="16px"/><rect x="296px" y="376px" width="16px" height="16px"/><rect x="376px" y="376px" width="16px" height="16px"/></g><g transform="matrix(0.09201917052268982 0 0 0.09201917052268982 253.8762487360391 15.915399074554443)" id="L1_5"><path d="M348.583,81.448l-76.584-53.616V0h-16v24h-32V0h-16v27.832l-76.584,53.6c-3.627,2.523-4.523,7.508-2.001,11.135    c1.499,2.155,3.959,3.438,6.585,3.433h208c4.418-0.003,7.997-3.588,7.994-8.006C351.991,85.387,350.718,82.944,348.583,81.448z     M161.375,80l57.144-40h42.96l57.144,40H161.375z"/><path d="M103.999,312h-16c-13.255,0-24,10.745-24,24v8c0,13.255,10.745,24,24,24h16c13.255,0,24-10.745,24-24v-8    C127.999,322.745,117.254,312,103.999,312z M111.999,344c0,4.418-3.582,8-8,8h-16c-4.418,0-8-3.582-8-8v-8c0-4.418,3.582-8,8-8h16    c4.418,0,8,3.582,8,8V344z"/><path d="M391.999,312h-16c-13.255,0-24,10.745-24,24v8c0,13.255,10.745,24,24,24h16c13.255,0,24-10.745,24-24v-8    C415.999,322.745,405.254,312,391.999,312z M399.999,344c0,4.418-3.582,8-8,8h-16c-4.418,0-8-3.582-8-8v-8c0-4.418,3.582-8,8-8h16    c4.418,0,8,3.582,8,8V344z"/><path d="M311.999,312h-144c-13.255,0-24,10.745-24,24v8c0,13.255,10.745,24,24,24h144c13.255,0,24-10.745,24-24v-8    C335.999,322.745,325.254,312,311.999,312z M319.999,344c0,4.418-3.582,8-8,8h-144c-4.418,0-8-3.582-8-8v-8c0-4.418,3.582-8,8-8    h144c4.418,0,8,3.582,8,8V344z"/><path d="M422.847,288.52l-17.736-7.096l-53.056-72.952c-7.542-10.334-19.559-16.452-32.352-16.472H160.295    c-12.793,0.02-24.81,6.138-32.352,16.472l-53.056,72.952l-17.736,7.096c-15.225,6.031-25.204,20.768-25.152,37.144V464    c0,8.837,7.163,16,16,16h48c8.837,0,16-7.163,16-16v-32h256v32c0,8.837,7.163,16,16,16h48c8.837,0,16-7.163,16-16V325.664    C448.051,309.288,438.072,294.551,422.847,288.52z M140.879,217.888c4.525-6.203,11.738-9.876,19.416-9.888h159.408    c7.678,0.012,14.891,3.685,19.416,9.888L384.287,280H95.711L140.879,217.888z M95.999,464h-48v-33.368    c0.672,0.24,1.4,0.368,2.104,0.544c0.464,0.12,0.912,0.28,1.392,0.368c1.483,0.294,2.992,0.447,4.504,0.456h40V464z M431.999,464    h-48v-32h40c1.512-0.009,3.021-0.162,4.504-0.456c0.48-0.088,0.928-0.248,1.4-0.368c0.696-0.176,1.424-0.304,2.096-0.544V464z     M431.999,408c0,4.418-3.582,8-8,8h-320h-48c-4.418,0-8-3.582-8-8v-8h384V408z M431.999,384h-384v-58.336    c-0.034-9.824,5.953-18.665,15.088-22.28L81.535,296h316.928l18.448,7.384c9.135,3.615,15.122,12.456,15.088,22.28V384z"/><rect x="231px" y="112px" width="16px" height="24px"/><rect x="231px" y="152px" width="16px" height="24px"/><rect x="140px" y="113px" width="24px" height="16px" transform="matrix(0.6337 -0.7736 0.7736 0.6337 -37.9929 162.3215)"/><rect x="115px" y="144px" width="24px" height="16px" transform="matrix(0.6338 -0.7735 0.7735 0.6338 -71.2264 154.0246)"/><rect x="89px" y="175px" width="24px" height="16px" transform="matrix(0.6338 -0.7735 0.7735 0.6338 -104.4402 145.7453)"/><rect x="64px" y="206px" width="24px" height="16px" transform="matrix(0.6338 -0.7735 0.7735 0.6338 -137.6858 137.47)"/><rect x="184px" y="115px" width="24px" height="16px" transform="matrix(0.2803 -0.9599 0.9599 0.2803 22.9315 277.6729)"/><rect x="173px" y="153px" width="24px" height="16px" transform="matrix(0.2807 -0.9598 0.9598 0.2807 -22.0193 294.4154)"/><rect x="93px" y="110px" width="24px" height="15px" transform="matrix(0.7351 -0.678 0.678 0.7351 -52.5152 102.5853)"/><rect x="63px" y="137px" width="24px" height="15px" transform="matrix(0.7351 -0.678 0.678 0.7351 -78.7088 89.8351)"/><rect x="34px" y="164px" width="24px" height="15px" transform="matrix(0.7351 -0.678 0.678 0.7351 -104.8662 77.0916)"/><rect x="4px" y="191px" width="24px" height="15px" transform="matrix(0.7351 -0.678 0.678 0.7351 -131.0382 64.3462)"/><rect x="319px" y="110px" width="15px" height="24px" transform="matrix(0.7738 -0.6335 0.6335 0.7738 -3.7822 235.3394)"/><rect x="344px" y="141px" width="16px" height="24px" transform="matrix(0.7736 -0.6337 0.6337 0.7736 -17.6022 258.4628)"/><rect x="370px" y="172px" width="16px" height="24px" transform="matrix(0.7735 -0.6337 0.6337 0.7735 -31.4475 281.6047)"/><rect x="395px" y="203px" width="16px" height="24px" transform="matrix(0.7735 -0.6337 0.6337 0.7735 -45.3525 304.6502)"/><rect x="275px" y="113px" width="16px" height="24px" transform="matrix(0.96 -0.28 0.28 0.96 -23.7474 84.3501)"/><rect x="286px" y="151px" width="16px" height="24px" transform="matrix(0.9598 -0.2806 0.2806 0.9598 -34.0644 89.2291)"/><rect x="366px" y="108px" width="15px" height="24px" transform="matrix(0.678 -0.735 0.735 0.678 32.4261 314.2939)"/><rect x="396px" y="135px" width="15px" height="24px" transform="matrix(0.6781 -0.7349 0.7349 0.6781 21.9275 344.605)"/><rect x="425px" y="162px" width="15px" height="24px" transform="matrix(0.6781 -0.7349 0.7349 0.6781 11.44 374.9243)"/><rect x="455px" y="189px" width="15px" height="24px" transform="matrix(0.678 -0.735 0.735 0.678 1.0106 405.3212)"/></g><g transform="matrix(0.08684846758842468 0 0 0.08684846758842468 158.99837612733245 108.06686534511391)" id="L1_7"><path d="M 240 86.890625 L 278.398438 86.890625 L 278.398438 106.09375 L 240 106.09375 Z M 240 86.890625 " fill="#000000" fill-opacity="1" stroke="none"/><path d="M 567.761719 58.1875 L 502.550781 48.875 C 490.660156 41.570312 478.320312 35.03125 465.597656 29.292969 C 423.582031 10.261719 377.980469 0.441406 331.851562 0.492188 L 320.523438 0.492188 C 266.085938 0.53125 212.519531 14.191406 164.707031 40.226562 L 131.796875 58.179688 C 93.273438 58.613281 55.492188 68.859375 22.023438 87.9375 C 8.421875 95.738281 0.0234375 110.210938 0 125.886719 L 0 182.890625 C 0 188.195312 4.296875 192.492188 9.601562 192.492188 L 41.835938 192.492188 C 52.320312 222.402344 85.066406 238.152344 114.976562 227.667969 C 131.441406 221.898438 144.382812 208.953125 150.152344 192.492188 L 406.636719 192.492188 C 417.121094 222.402344 449.867188 238.152344 479.777344 227.667969 C 496.238281 221.898438 509.183594 208.953125 514.953125 192.492188 L 518.398438 192.492188 C 519.621094 192.492188 520.832031 192.261719 521.96875 191.808594 L 553.0625 179.332031 C 566.953125 173.832031 576.050781 160.386719 576 145.453125 L 576 67.691406 C 576 62.917969 572.488281 58.867188 567.761719 58.1875 Z M 133.621094 180.972656 C 129.375 201.75 109.089844 215.152344 88.3125 210.90625 C 67.53125 206.660156 54.128906 186.375 58.375 165.59375 C 62.625 144.816406 82.910156 131.414062 103.6875 135.660156 C 121.566406 139.3125 134.402344 155.042969 134.398438 173.292969 C 134.398438 175.871094 134.136719 178.445312 133.621094 180.972656 Z M 307.199219 173.292969 L 153.597656 173.292969 C 153.597656 141.480469 127.8125 115.691406 96 115.691406 C 64.1875 115.691406 38.398438 141.480469 38.398438 173.292969 L 19.199219 173.292969 L 19.199219 125.886719 C 19.210938 117.09375 23.921875 108.972656 31.554688 104.605469 C 62.882812 86.71875 98.328125 77.304688 134.398438 77.292969 L 307.199219 77.292969 Z M 307.199219 58.09375 L 172.050781 58.09375 L 173.902344 57.082031 C 214.945312 34.777344 260.535156 22.132812 307.199219 20.113281 Z M 326.398438 19.691406 L 331.832031 19.691406 C 370.519531 19.648438 408.855469 26.992188 444.789062 41.332031 L 428.027344 58.09375 L 326.398438 58.09375 Z M 498.421875 180.972656 C 494.175781 201.75 473.890625 215.152344 453.109375 210.90625 C 432.332031 206.660156 418.929688 186.375 423.175781 165.59375 C 427.421875 144.816406 447.710938 131.414062 468.488281 135.660156 C 486.367188 139.3125 499.203125 155.042969 499.199219 173.292969 C 499.199219 175.871094 498.9375 178.445312 498.421875 180.972656 Z M 556.800781 86.890625 L 528 86.890625 L 528 106.09375 L 556.800781 106.09375 L 556.800781 145.453125 C 556.824219 152.527344 552.511719 158.894531 545.933594 161.492188 L 518.398438 172.550781 C 518.398438 171.667969 518.285156 170.792969 518.226562 169.910156 C 518.167969 169.027344 518.148438 167.992188 518.054688 167.03125 C 517.957031 166.070312 517.765625 165.109375 517.613281 164.152344 C 517.457031 163.191406 517.34375 162.230469 517.152344 161.359375 C 516.960938 160.484375 516.679688 159.515625 516.429688 158.601562 C 516.179688 157.691406 515.988281 156.769531 515.699219 155.875 C 515.414062 154.984375 515.066406 154.128906 514.742188 153.253906 C 514.414062 152.382812 514.117188 151.480469 513.78125 150.613281 C 513.445312 149.75 512.992188 148.964844 512.589844 148.148438 C 512.1875 147.332031 511.792969 146.4375 511.34375 145.613281 C 510.890625 144.789062 510.382812 144.085938 509.949219 143.320312 C 509.519531 142.550781 508.992188 141.675781 508.445312 140.890625 C 507.894531 140.101562 507.386719 139.480469 506.859375 138.769531 C 506.332031 138.058594 505.734375 137.222656 505.121094 136.484375 C 504.507812 135.746094 503.933594 135.167969 503.335938 134.5625 C 502.742188 133.960938 502.078125 133.144531 501.417969 132.472656 C 500.753906 131.800781 500.101562 131.269531 499.441406 130.675781 C 498.777344 130.082031 498.066406 129.378906 497.335938 128.753906 C 496.609375 128.132812 495.867188 127.652344 495.140625 127.105469 C 494.410156 126.558594 493.679688 125.972656 492.914062 125.460938 C 492.144531 124.953125 491.28125 124.503906 490.457031 123.964844 C 489.628906 123.425781 488.957031 123.003906 488.179688 122.59375 C 487.402344 122.179688 486.433594 121.746094 485.550781 121.324219 C 484.667969 120.902344 483.976562 120.527344 483.160156 120.183594 C 482.34375 119.835938 481.238281 119.472656 480.28125 119.128906 C 479.320312 118.78125 478.695312 118.511719 477.878906 118.253906 C 476.785156 117.917969 475.664062 117.675781 474.546875 117.398438 C 473.816406 117.226562 473.117188 116.996094 472.378906 116.84375 C 471.199219 116.601562 469.988281 116.46875 468.789062 116.292969 C 468.078125 116.199219 467.398438 116.042969 466.6875 115.976562 C 464.765625 115.785156 462.847656 115.679688 460.832031 115.679688 C 429.03125 115.710938 403.261719 141.480469 403.230469 173.28125 L 326.402344 173.28125 L 326.402344 77.289062 L 432 77.289062 C 434.546875 77.289062 436.988281 76.277344 438.785156 74.476562 L 463.679688 49.582031 C 474.128906 54.554688 484.289062 60.113281 494.113281 66.230469 C 495.246094 66.9375 496.511719 67.402344 497.835938 67.59375 L 556.800781 76.011719 Z M 556.800781 86.890625 " fill="#000000" fill-opacity="1" stroke="none"/></g><g transform="matrix(0.13079161942005157 0 0 0.13079161942005157 332 79)" id="L1_8"><path d="M386.172,303.19c-16.701,0-30.288,13.587-30.288,30.289c0,16.701,13.587,30.288,30.288,30.288s30.288-13.587,30.288-30.288   C416.46,316.778,402.873,303.19,386.172,303.19z M386.172,348.767c-8.43,0-15.288-6.858-15.288-15.288   c0-8.43,6.858-15.289,15.288-15.289s15.288,6.858,15.288,15.289C401.46,341.908,394.602,348.767,386.172,348.767z"/><path d="M457.003,274.505c-17.591-21.089-43.408-33.184-70.831-33.184c-4.595,0-9.11,0.343-13.526,0.995   c-3.044-19.741-21.612-45.869-39.606-67.244v-63.534c0-2.341-1.094-4.548-2.956-5.967c-1.864-1.42-4.286-1.885-6.538-1.263   l-12.224,3.372c-6.525,1.8-12.228,5.354-16.649,10.063l-6.421-29.535c-0.75-3.448-3.801-5.907-7.329-5.907h-13.093V71.497   c0-4.142-3.357-7.5-7.5-7.5s-7.5,3.358-7.5,7.5v37.753c0,4.142,3.357,7.5,7.5,7.5s7.5-3.358,7.5-7.5V97.301h7.048l9.238,42.495   c-3.953,4.174-6.626,9.346-7.751,15.042l-21.583,23.726c-2.787,3.064-2.563,7.808,0.501,10.595   c1.438,1.308,3.244,1.952,5.045,1.952c2.038,0,4.07-0.826,5.55-2.453l13.032-14.325c0.946,1.908,2.094,3.734,3.448,5.445   c8.495,10.734,20.248,27.153,27.999,44.422c8.361,18.627,10.337,34.108,5.873,46.013c-6.517,17.376-25.587,30.745-51.013,35.761   c-27.141,5.357-54.024-0.354-66.888-14.207c-5.667-6.103-8.205-12.161-7.759-18.52c0.793-11.308,10.844-24.881,29.872-40.342   c0.023-0.019,1.558-1.738,1.578-1.768c5.875-8.458,6.613-19.352,1.89-28.529c-4.779-9.287-14.237-15.056-24.682-15.056H91.014   c-20.699,0-37.722,15.993-39.388,36.27c-4.312,4.385-14.373,15.119-24.521,29.552C9.119,278.953,0,302.825,0,324.326   c0,4.142,3.357,7.5,7.5,7.5h16.016h9.65c-0.015,0.551-0.035,1.101-0.035,1.652c0,33.784,27.485,61.269,61.269,61.269   c28.427,0,52.391-19.462,59.276-45.761h173.22c6.886,26.298,30.849,45.761,59.276,45.761c33.784,0,61.27-27.485,61.27-61.269   c0-12.38-3.703-23.906-10.042-33.552l18.518-14.751c1.579-1.258,2.584-3.099,2.789-5.106   C458.91,278.06,458.296,276.054,457.003,274.505z M155.715,202.551h43.513c4.873,0,9.114,2.587,11.344,6.92   c1.672,3.248,1.888,6.845,0.699,10.113h-55.556V202.551z M91.014,202.551h49.701v17.033H67.652   C70.829,209.714,80.101,202.551,91.014,202.551z M94.399,379.748c-25.513,0-46.269-20.756-46.269-46.269   c0-0.552,0.016-1.103,0.035-1.652h15.991c-0.029,0.548-0.046,1.099-0.046,1.652c0,16.702,13.587,30.289,30.288,30.289   s30.289-13.587,30.289-30.289c0-0.553-0.017-1.104-0.046-1.652h15.992c0.019,0.55,0.035,1.1,0.035,1.652   C140.669,358.991,119.912,379.748,94.399,379.748z M79.111,333.479c0-0.556,0.033-1.107,0.091-1.652h30.395   c0.059,0.545,0.091,1.096,0.091,1.652c0,8.43-6.858,15.289-15.289,15.289C85.97,348.768,79.111,341.909,79.111,333.479z    M143.619,316.826H33.426c2.48-7.17,7.068-17.701,14.978-27.849c18.106-23.232,44.589-33.798,78.692-31.398   c15.116,1.063,24.613,5.046,28.229,11.839C160.05,278.299,156.111,294.238,143.619,316.826z M294.026,333.987h-138.37   c0.001-0.17,0.013-0.338,0.013-0.508c0-2.277-0.138-4.546-0.386-6.786c11.612-20.377,23.176-45.731,13.282-64.321   c-6.204-11.659-19.803-18.306-40.417-19.755c-49.421-3.476-77.299,18.568-91.987,37.672c-10.867,14.132-16.18,28.598-18.491,36.539   h-2.223c4.271-36.595,37.897-73.257,46.645-82.242h134.131c-13.002,13.279-19.779,25.68-20.616,37.613   c-0.742,10.577,3.204,20.595,11.729,29.776c16.521,17.792,48.231,25.138,80.783,18.716c10.553-2.082,20.231-5.461,28.726-9.909   c-1.847,7.264-2.832,14.868-2.832,22.698C294.014,333.648,294.025,333.817,294.026,333.987z M315.31,122.14l2.729-0.753v36.686   c-7.712-8.365-14.258-14.95-17.953-18.589C301.25,131.298,307.175,124.384,315.31,122.14z M294.118,170.468   c-2.605-3.291-3.753-7.403-3.231-11.578c0.249-2,0.865-3.892,1.805-5.604c21.769,21.912,63.111,68.162,65.292,92.45   c-8.806,2.836-17.037,6.962-24.471,12.157C333.936,238.347,325.374,209.961,294.118,170.468z M386.172,379.748   c-25.513,0-46.27-20.756-46.27-46.269s20.757-46.269,46.27-46.269s46.27,20.756,46.27,46.269S411.685,379.748,386.172,379.748z    M427.696,288.478c-10.926-10.09-25.515-16.269-41.524-16.269c-33.784,0-61.27,27.485-61.27,61.269c0,0.17,0.011,0.338,0.013,0.508   h-15.89c-0.001-0.17-0.012-0.338-0.012-0.508c0-42.545,34.613-77.158,77.158-77.158c20.385,0,39.713,7.985,54.104,22.137   L427.696,288.478z"/></g><g transform="matrix(0.08544206977293699 0.008838835056338727 -0.008838835056338727 0.08544206977293699 165.61522366801643 268.37258284097385)" id="L1_9"><path d="M104,0C46.562,0,0,46.562,0,104c0.066,57.41,46.59,103.934,104,104c57.438,0,104-46.562,104-104S161.438,0,104,0z     M104,192c-48.601,0-88-39.399-88-88c0.057-48.577,39.423-87.943,88-88c48.601,0,88,39.399,88,88S152.601,192,104,192z"/><path d="M160,104c-0.035,30.913-25.087,55.965-56,56v16c39.746-0.044,71.956-32.254,72-72H160z"/><path d="M392,32c-48.601,0-88,39.399-88,88s39.399,88,88,88c48.601,0,88-39.399,88-88C479.943,71.423,440.577,32.057,392,32z     M392,192c-39.764,0-72-32.236-72-72c0-39.765,32.236-72,72-72c39.765,0,72,32.235,72,72C463.956,159.746,431.746,191.956,392,192    z"/><path d="M336,120h16c0.026-22.08,17.92-39.974,40-40V64C361.087,64.035,336.035,89.087,336,120z"/><path d="M176,304c-48.601,0-88,39.399-88,88c0,48.601,39.399,88,88,88s88-39.399,88-88C263.943,343.423,224.577,304.057,176,304z     M176,464c-39.764,0-72-32.236-72-72c0-39.765,32.236-72,72-72c39.765,0,72,32.235,72,72C247.956,431.746,215.746,463.956,176,464    z"/><path d="M136,392h-16c0.035,30.913,25.087,55.965,56,56v-16C153.92,431.974,136.026,414.08,136,392z"/><path d="M240,192c-26.51,0-48,21.49-48,48c0,26.51,21.49,48,48,48c26.51,0,48-21.49,48-48    C287.974,213.501,266.499,192.026,240,192z M240,272c-17.673,0-32-14.327-32-32s14.327-32,32-32c17.673,0,32,14.327,32,32    S257.673,272,240,272z"/><path d="M400,272c-26.51,0-48,21.49-48,48c0,26.51,21.49,48,48,48c26.51,0,48-21.49,48-48    C447.974,293.501,426.499,272.026,400,272z M400,352c-17.673,0-32-14.327-32-32c0-17.673,14.327-32,32-32    c17.673,0,32,14.327,32,32C432,337.673,417.673,352,400,352z"/><path d="M48,248c-13.255,0-24,10.745-24,24s10.745,24,24,24s24-10.745,24-24S61.255,248,48,248z M48,280c-4.418,0-8-3.582-8-8    s3.582-8,8-8s8,3.582,8,8S52.418,280,48,280z"/><path d="M240,24c-13.255,0-24,10.745-24,24s10.745,24,24,24s24-10.745,24-24S253.255,24,240,24z M240,56c-4.418,0-8-3.582-8-8    s3.582-8,8-8s8,3.582,8,8S244.418,56,240,56z"/><path d="M344,408c-13.255,0-24,10.745-24,24s10.745,24,24,24s24-10.745,24-24S357.255,408,344,408z M344,440c-4.418,0-8-3.582-8-8    s3.582-8,8-8s8,3.582,8,8S348.418,440,344,440z"/></g><g transform="matrix(0.09772227704524994 0 0 0.09772227704524994 -12.235156118869781 266.32840234041214)" id="L1_10"><path d="m472 136h-47.28125l-7.269531-33.6875c-.796875-3.695312-4.070313-6.324219-7.847657-6.3125h-61.289062l-13.601562-20.726562c-1.480469-2.25-3.992188-3.601563-6.6875-3.601563h-75.617188c-3.769531 0-7.027344 2.628906-7.820312 6.3125l-12.523438 58.015625h-16.0625c-4.417969 0-8 3.582031-8 8v31.671875.167969.175781 16c0 1.304687.324219 2.589844.9375 3.746094l7.566406 14.238281v6h16v-8c0-1.308594-.320312-2.597656-.9375-3.75l-7.566406-14.25v-6l96.558594-.304688h111.441406v6.402344l-5.113281 9.902344h-178.886719v16h175.785156l.214844 159.671875h-191.320312l-.679688-79.742187-16 .140624.679688 79.617188h-24.679688c-4.417969 0-8 3.582031-8 8v48.3125c0 4.417969 3.582031 8 8 8h2.808594c-1.824219 3.738281-2.785156 7.839844-2.808594 12 0 15.464844 12.535156 28 28 28s28-12.535156 28-28c-.023438-4.160156-.984375-8.261719-2.808594-12h165.601563c-1.820313 3.738281-2.773438 7.839844-2.792969 12 0 15.464844 12.535156 28 28 28s28-12.535156 28-28c-.023438-4.160156-.984375-8.261719-2.808594-12h2.808594c4.417969 0 8-3.582031 8-8v-48.3125c0-4.417969-3.582031-8-8-8h-24l-.183594-135.6875h16.183594c3.046875.015625 5.839844-1.699219 7.199219-4.421875l16-32c.539062-1.117187.8125-2.339844.800781-3.578125v-56c0-4.417969-3.582031-8-8-8zm-213.136719-48.328125h64.800781l13.601563 20.726563c1.488281 2.265624 4.023437 3.621093 6.734375 3.601562h59.199219l5.105469 23.671875h-159.800782zm61.601563 80h-96.464844v-15.671875h208v15.320312zm-100.464844 296.328125c-6.628906 0-12-5.371094-12-12s5.371094-12 12-12 12 5.371094 12 12-5.371094 12-12 12zm216 0c-6.628906 0-12-5.371094-12-12s5.371094-12 12-12 12 5.371094 12 12-5.371094 12-12 12zm20-72.3125v32.3125h-256v-32.3125h21.601562c.996094.433594 2.070313.660156 3.160157.664062l195.726562-.664062zm8-193.597656-12.945312 25.910156h-11.261719v-14.070312l7.34375-14.273438c.570312-1.132812.867187-2.386719.863281-3.65625v-40h16zm0 0"/><path d="m248 336h160v16h-160zm0 0"/><path d="m248 296h160v16h-160zm0 0"/><path d="m280 104h16v16h-16zm0 0"/><path d="m264 280c13.253906 0 24-10.746094 24-24s-10.746094-24-24-24h-72v-192c-.027344-22.082031-17.917969-39.9726562-40-40h-64c-22.082031.0273438-39.972656 17.917969-40 40v376h-40c-4.417969 0-8 3.582031-8 8v48c0 4.417969 3.582031 8 8 8h128c4.417969 0 8-3.582031 8-8v-48c0-4.417969-3.582031-8-8-8h-40v-368h48v192c.027344 22.082031 17.917969 39.972656 40 40zm-136 152v32h-112v-32h40c4.417969 0 8-3.582031 8-8v-24h16v24c0 4.417969 3.582031 8 8 8zm-16-400h-16c-8.835938 0-16 7.164062-16 16v336h-16v-344c0-13.253906 10.746094-24 24-24h24zm48 208v-192c0-8.835938-7.164062-16-16-16h-16v-16h24c13.253906 0 24 10.746094 24 24v192c0 8.835938 7.164062 16 16 16h72c4.417969 0 8 3.582031 8 8s-3.582031 8-8 8h-80c-13.253906 0-24-10.746094-24-24zm0 0"/></g></defs><g fi:class="KUsePattern"><pattern id="pattern_L1_0" width="350" height="350" patternUnits="userSpaceOnUse"><use xlink:href="#L1_0" x="-350" y="-350"/><use xlink:href="#L1_0" x="0" y="-350"/><use xlink:href="#L1_0" x="350" y="-350"/><use xlink:href="#L1_0" x="-350" y="0"/><use xlink:href="#L1_0" x="0" y="0"/><use xlink:href="#L1_0" x="350" y="0"/><use xlink:href="#L1_0" x="-350" y="350"/><use xlink:href="#L1_0" x="0" y="350"/><use xlink:href="#L1_0" x="350" y="350"/></pattern><rect x="0" y="0" width="100%" height="100%" fill="url(#pattern_L1_0)"/></g><g fi:class="KUsePattern"><pattern id="pattern_L1_1" width="350" height="350" patternUnits="userSpaceOnUse"><use xlink:href="#L1_1" x="-350" y="-350"/><use xlink:href="#L1_1" x="0" y="-350"/><use xlink:href="#L1_1" x="350" y="-350"/><use xlink:href="#L1_1" x="-350" y="0"/><use xlink:href="#L1_1" x="0" y="0"/><use xlink:href="#L1_1" x="350" y="0"/><use xlink:href="#L1_1" x="-350" y="350"/><use xlink:href="#L1_1" x="0" y="350"/><use xlink:href="#L1_1" x="350" y="350"/></pattern><rect x="0" y="0" width="100%" height="100%" fill="url(#pattern_L1_1)"/></g><g fi:class="KUsePattern"><pattern id="pattern_L1_2" width="350" height="350" patternUnits="userSpaceOnUse"><use xlink:href="#L1_2" x="-350" y="-350"/><use xlink:href="#L1_2" x="0" y="-350"/><use xlink:href="#L1_2" x="350" y="-350"/><use xlink:href="#L1_2" x="-350" y="0"/><use xlink:href="#L1_2" x="0" y="0"/><use xlink:href="#L1_2" x="350" y="0"/><use xlink:href="#L1_2" x="-350" y="350"/><use xlink:href="#L1_2" x="0" y="350"/><use xlink:href="#L1_2" x="350" y="350"/></pattern><rect x="0" y="0" width="100%" height="100%" fill="url(#pattern_L1_2)"/></g><g fi:class="KUsePattern"><pattern id="pattern_L1_3" width="350" height="350" patternUnits="userSpaceOnUse"><use xlink:href="#L1_3" x="-350" y="-350"/><use xlink:href="#L1_3" x="0" y="-350"/><use xlink:href="#L1_3" x="350" y="-350"/><use xlink:href="#L1_3" x="-350" y="0"/><use xlink:href="#L1_3" x="0" y="0"/><use xlink:href="#L1_3" x="350" y="0"/><use xlink:href="#L1_3" x="-350" y="350"/><use xlink:href="#L1_3" x="0" y="350"/><use xlink:href="#L1_3" x="350" y="350"/></pattern><rect x="0" y="0" width="100%" height="100%" fill="url(#pattern_L1_3)"/></g><g fi:class="KUsePattern"><pattern id="pattern_L1_5" width="350" height="350" patternUnits="userSpaceOnUse"><use xlink:href="#L1_5" x="-350" y="-350"/><use xlink:href="#L1_5" x="0" y="-350"/><use xlink:href="#L1_5" x="350" y="-350"/><use xlink:href="#L1_5" x="-350" y="0"/><use xlink:href="#L1_5" x="0" y="0"/><use xlink:href="#L1_5" x="350" y="0"/><use xlink:href="#L1_5" x="-350" y="350"/><use xlink:href="#L1_5" x="0" y="350"/><use xlink:href="#L1_5" x="350" y="350"/></pattern><rect x="0" y="0" width="100%" height="100%" fill="url(#pattern_L1_5)"/></g><g fi:class="KUsePattern"><pattern id="pattern_L1_7" width="350" height="350" patternUnits="userSpaceOnUse"><use xlink:href="#L1_7" x="-350" y="-350"/><use xlink:href="#L1_7" x="0" y="-350"/><use xlink:href="#L1_7" x="350" y="-350"/><use xlink:href="#L1_7" x="-350" y="0"/><use xlink:href="#L1_7" x="0" y="0"/><use xlink:href="#L1_7" x="350" y="0"/><use xlink:href="#L1_7" x="-350" y="350"/><use xlink:href="#L1_7" x="0" y="350"/><use xlink:href="#L1_7" x="350" y="350"/></pattern><rect x="0" y="0" width="100%" height="100%" fill="url(#pattern_L1_7)"/></g><g fi:class="KUsePattern"><pattern id="pattern_L1_8" width="350" height="350" patternUnits="userSpaceOnUse"><use xlink:href="#L1_8" x="-350" y="-350"/><use xlink:href="#L1_8" x="0" y="-350"/><use xlink:href="#L1_8" x="350" y="-350"/><use xlink:href="#L1_8" x="-350" y="0"/><use xlink:href="#L1_8" x="0" y="0"/><use xlink:href="#L1_8" x="350" y="0"/><use xlink:href="#L1_8" x="-350" y="350"/><use xlink:href="#L1_8" x="0" y="350"/><use xlink:href="#L1_8" x="350" y="350"/></pattern><rect x="0" y="0" width="100%" height="100%" fill="url(#pattern_L1_8)"/></g><g fi:class="KUsePattern"><pattern id="pattern_L1_9" width="350" height="350" patternUnits="userSpaceOnUse"><use xlink:href="#L1_9" x="-350" y="-350"/><use xlink:href="#L1_9" x="0" y="-350"/><use xlink:href="#L1_9" x="350" y="-350"/><use xlink:href="#L1_9" x="-350" y="0"/><use xlink:href="#L1_9" x="0" y="0"/><use xlink:href="#L1_9" x="350" y="0"/><use xlink:href="#L1_9" x="-350" y="350"/><use xlink:href="#L1_9" x="0" y="350"/><use xlink:href="#L1_9" x="350" y="350"/></pattern><rect x="0" y="0" width="100%" height="100%" fill="url(#pattern_L1_9)"/></g><g fi:class="KUsePattern"><pattern id="pattern_L1_10" width="350" height="350" patternUnits="userSpaceOnUse"><use xlink:href="#L1_10" x="-350" y="-350"/><use xlink:href="#L1_10" x="0" y="-350"/><use xlink:href="#L1_10" x="350" y="-350"/><use xlink:href="#L1_10" x="-350" y="0"/><use xlink:href="#L1_10" x="0" y="0"/><use xlink:href="#L1_10" x="350" y="0"/><use xlink:href="#L1_10" x="-350" y="350"/><use xlink:href="#L1_10" x="0" y="350"/><use xlink:href="#L1_10" x="350" y="350"/></pattern><rect x="0" y="0" width="100%" height="100%" fill="url(#pattern_L1_10)"/></g></svg>